<svg viewBox="0 0 424 94" style="background-color:#ffffff00" xmlns="http://www.w3.org/2000/svg" width="424" height="94"><path d="M273.503 53.097h-12.052v-18.67a.686.686 0 0 0-.686-.685h-7.687a.687.687 0 0 0-.687.686v25.724c0 .379.308.687.687.687h20.425a.689.689 0 0 0 .688-.687v-6.37a.687.687 0 0 0-.688-.685zM360.73 44c0 1.664-1.317 2.631-3.486 2.631h-3.91v-5.303h3.95c2.09 0 3.446.853 3.446 2.594V44zm4.113 8.262a.686.686 0 0 1 .23-.983c2.9-1.627 4.678-4.263 4.678-7.937v-.078c0-2.788-.851-4.8-2.478-6.426-1.898-1.896-4.956-3.096-9.757-3.096h-12.557a.686.686 0 0 0-.686.686v25.724c0 .379.307.687.686.687h7.688c.379 0 .686-.308.686-.687v-7.055h1.937l4.907 7.433c.128.193.343.31.573.31h8.667c.552 0 .878-.62.566-1.075l-5.14-7.503zm-31.992-4.894c0 3.174-2.168 6.038-5.614 6.038-3.484 0-5.692-2.903-5.692-6.115v-.078c0-3.174 2.169-6.04 5.614-6.04 3.485 0 5.692 2.904 5.692 6.118v.077zm-5.614-14.208c-8.363 0-14.83 6.271-14.83 14.13v.078c0 7.857 6.389 14.051 14.752 14.051 8.364 0 14.83-6.27 14.83-14.128v-.078c0-7.859-6.389-14.053-14.752-14.053zm-77.97 20.246h-13.717v-.683-1.573-.686h12.555c.38 0 .687-.308.687-.687V44.61a.687.687 0 0 0-.687-.687H235.55v-2.748h13.523c.38 0 .687-.307.687-.687v-6.06a.687.687 0 0 0-.687-.685H227.33a.686.686 0 0 0-.686.686v25.724c0 .379.307.687.686.687h21.937c.38 0 .686-.308.686-.687v-6.059a.687.687 0 0 0-.686-.687zm144.577-.309H381.79v-18.67a.687.687 0 0 0-.686-.685h-7.688a.686.686 0 0 0-.686.686v25.724c0 .379.307.687.686.687h20.426c.38 0 .688-.308.688-.687v-6.37a.686.686 0 0 0-.688-.685zm-81.18-19.355h-7.873c-.306 0-.574.2-.66.492l-3.07 10.42c-.19.644-1.097.66-1.31.023l-3.526-10.544a.686.686 0 0 0-.65-.47h-6.834a.685.685 0 0 0-.651.47l-3.527 10.544c-.213.637-1.12.621-1.309-.023l-3.071-10.42a.686.686 0 0 0-.659-.492h-8.027a.687.687 0 0 0-.654.898l8.42 25.918a.686.686 0 0 0 .654.474h6.915c.29 0 .55-.183.646-.457l3.954-11.183c.216-.61 1.079-.61 1.295 0l3.953 11.183a.688.688 0 0 0 .648.457h6.915c.298 0 .56-.19.652-.474l8.421-25.918a.686.686 0 0 0-.652-.898zm-174.327 0h-7.687a.687.687 0 0 0-.688.686v8.875h-8.286v-8.875a.686.686 0 0 0-.686-.686h-7.687a.686.686 0 0 0-.687.686v25.724c0 .379.307.687.687.687h7.687c.38 0 .686-.308.686-.687v-9.029h8.286v9.029c0 .379.309.687.688.687h7.687c.379 0 .687-.308.687-.687V34.428a.687.687 0 0 0-.687-.686zm275.748 13.587c0 3.91-2.672 5.613-6.816 5.613h-1.51V41.638h1.51c4.144 0 6.816 1.704 6.816 5.614v.077zm-7.009-13.587h-9.69a.686.686 0 0 0-.687.686v25.724c0 .379.307.687.686.687h9.38c10.959 0 16.457-5.69 16.457-13.704v-.078c0-8.012-5.382-13.316-16.146-13.316zm-221.28 9.6c-2.866-.542-3.602-1.008-3.602-1.742v-.078c0-.658.62-1.122 1.975-1.122 2.345 0 5.16.705 7.601 2.305.304.198.711.116.923-.178l3.628-5.03a.69.69 0 0 0-.164-.964c-3.036-2.196-6.756-3.295-11.678-3.295-7.473 0-11.5 3.987-11.5 9.136v.078c0 5.729 5.343 7.47 11.423 8.71 2.904.58 3.755 1.006 3.755 1.78v.077c0 .736-.697 1.161-2.322 1.161-2.999 0-6.169-.828-8.99-2.81a.681.681 0 0 0-.91.128l-3.984 4.748a.69.69 0 0 0 .102.983c3.413 2.72 8.14 4.113 13.355 4.113 7.28 0 11.965-3.484 11.965-9.174v-.078c0-5.459-4.646-7.471-11.578-8.748zm37.336-9.6H199.49a.686.686 0 0 0-.687.686v6.291c0 .38.308.688.687.688h7.29v18.745c0 .379.308.687.687.687h7.686c.38 0 .688-.308.688-.687V41.407h7.29a.687.687 0 0 0 .686-.688v-6.291a.686.686 0 0 0-.686-.686zm-61.188 13.626c0 3.174-2.168 6.038-5.614 6.038-3.485 0-5.692-2.903-5.692-6.115v-.078c0-3.174 2.169-6.04 5.615-6.04 3.485 0 5.691 2.904 5.691 6.118v.077zM156.33 33.16c-8.363 0-14.83 6.271-14.83 14.13v.078c0 7.857 6.39 14.051 14.753 14.051s14.83-6.27 14.83-14.128v-.078c0-7.859-6.39-14.053-14.753-14.053z" fill="#fff"/><path d="M93.491 80.968c0 7.17-5.814 12.983-12.986 12.983H13.132C5.96 93.951.146 88.138.146 80.968V13.611C.146 6.441 5.96.63 13.132.63h67.373c7.172 0 12.986 5.813 12.986 12.982v67.357z" fill="#ff7346"/><path d="M77.379 15.468H58.705c-.692 0-1.253.562-1.253 1.254V33.41h2.085a.57.57 0 0 1 .536.566.56.56 0 0 1-.122.337L47.992 46.492a1.25 1.25 0 0 0 0 1.596l11.959 12.179a.558.558 0 0 1 .122.338.569.569 0 0 1-.536.565h-2.085v16.69c0 .69.561 1.252 1.253 1.252H77.38c.693 0 1.254-.561 1.254-1.253V16.722c0-.692-.561-1.254-1.254-1.254zM33.796 34.382l.001-.001a.569.569 0 0 1 .368-.971h2.063V16.722c0-.692-.563-1.254-1.255-1.254H16.257c-.693 0-1.254.562-1.254 1.254v61.137c0 .692.561 1.253 1.254 1.253h18.716c.693 0 1.255-.561 1.255-1.253V61.17h-2.063a.568.568 0 0 1-.368-.97v-.001l11.895-12.117a1.247 1.247 0 0 0 0-1.584L33.796 34.382z" fill="#fff"/></svg>