<svg viewBox="0 0 424 94" style="background-color:#ffffff00" xmlns="http://www.w3.org/2000/svg" width="424" height="94"><path d="M273.503 53.097H261.45v-18.67c0-.378-.306-.685-.685-.685h-7.687c-.38 0-.687.307-.687.686v25.724c0 .38.31.687.688.687h20.425c.38 0 .688-.31.688-.688v-6.37c0-.378-.308-.685-.687-.685zM360.73 44c0 1.664-1.318 2.63-3.487 2.63h-3.91V41.33h3.95c2.09 0 3.446.853 3.446 2.594V44zm4.112 8.262c-.227-.332-.12-.786.23-.983 2.9-1.628 4.678-4.264 4.678-7.938v-.078c0-2.788-.85-4.8-2.478-6.426-1.898-1.896-4.956-3.096-9.757-3.096h-12.557c-.38 0-.686.307-.686.686v25.724c0 .38.307.687.686.687h7.688c.38 0 .686-.31.686-.688v-7.055h1.937l4.906 7.433c.128.193.343.31.573.31h8.666c.552 0 .878-.62.566-1.075l-5.14-7.503zm-31.992-4.894c0 3.174-2.168 6.038-5.614 6.038-3.484 0-5.692-2.903-5.692-6.115v-.077c0-3.174 2.17-6.04 5.614-6.04 3.485 0 5.692 2.904 5.692 6.118v.078zm-5.614-14.208c-8.363 0-14.83 6.27-14.83 14.13v.078c0 7.857 6.39 14.05 14.752 14.05 8.364.002 14.83-6.27 14.83-14.127v-.077c0-7.86-6.39-14.053-14.752-14.053zm-77.97 20.246H235.55v-.683-1.573-.686h12.554c.38 0 .687-.308.687-.687V44.61c0-.38-.307-.688-.686-.688H235.55v-2.748h13.522c.38 0 .687-.307.687-.687v-6.06c0-.378-.31-.685-.688-.685H227.33c-.38 0-.687.307-.687.686v25.724c0 .38.307.687.686.687h21.936c.38 0 .686-.31.686-.688v-6.06c0-.38-.306-.686-.686-.686zm144.577-.31H381.79V34.43c0-.38-.306-.686-.685-.686h-7.688c-.38 0-.686.307-.686.686v25.724c0 .38.308.687.687.687h20.426c.38 0 .688-.31.688-.688v-6.37c0-.378-.307-.685-.687-.685zm-81.18-19.354h-7.873c-.306 0-.574.2-.66.492l-3.07 10.42c-.19.644-1.097.66-1.31.023l-3.526-10.544c-.094-.28-.356-.47-.65-.47h-6.834c-.295 0-.558.19-.65.47l-3.528 10.544c-.213.637-1.12.62-1.31-.023l-3.07-10.42c-.086-.292-.354-.492-.66-.492h-8.026c-.467 0-.797.455-.654.898l8.42 25.918c.092.283.357.474.654.474h6.915c.292 0 .55-.183.647-.457l3.954-11.183c.217-.61 1.08-.61 1.296 0l3.953 11.183c.097.274.357.457.647.457h6.915c.298 0 .56-.19.652-.474l8.42-25.918c.146-.443-.185-.898-.65-.898zm-174.327 0h-7.687c-.38 0-.69.307-.69.686v8.875h-8.285v-8.875c0-.38-.307-.686-.686-.686H113.3c-.38 0-.687.307-.687.686v25.724c0 .38.307.687.687.687h7.687c.378 0 .685-.31.685-.688v-9.03h8.286v9.03c0 .38.31.687.69.687h7.686c.38 0 .687-.31.687-.688V34.428c0-.38-.308-.686-.687-.686zM414.084 47.33c0 3.91-2.672 5.612-6.816 5.612h-1.51V41.638h1.51c4.144 0 6.816 1.704 6.816 5.614v.077zm-7.01-13.588h-9.69c-.38 0-.686.307-.686.686v25.724c0 .38.307.687.686.687h9.38c10.96 0 16.457-5.692 16.457-13.705v-.078c0-8.012-5.38-13.316-16.145-13.316v.002zm-221.28 9.6c-2.865-.542-3.6-1.008-3.6-1.742v-.078c0-.658.62-1.122 1.974-1.122 2.345 0 5.16.705 7.6 2.305.305.198.712.116.924-.178l3.628-5.03c.226-.31.148-.74-.164-.964-3.036-2.196-6.756-3.295-11.678-3.295-7.473 0-11.5 3.987-11.5 9.136v.078c0 5.73 5.343 7.47 11.423 8.71 2.905.58 3.756 1.006 3.756 1.78v.077c0 .735-.697 1.16-2.322 1.16-3 0-6.17-.828-8.99-2.81-.288-.202-.684-.14-.91.128l-3.984 4.748c-.25.298-.202.74.102.983 3.413 2.72 8.14 4.112 13.355 4.112 7.28 0 11.965-3.484 11.965-9.174v-.078c0-5.46-4.646-7.47-11.578-8.748zm37.337-9.6h-23.64c-.38 0-.687.307-.687.686v6.29c0 .38.308.69.687.69h7.29V60.15c0 .38.308.687.687.687h7.686c.38 0 .688-.31.688-.688V41.407h7.29c.38 0 .687-.308.687-.688v-6.292c0-.38-.307-.686-.686-.686zm-61.187 13.626c0 3.174-2.168 6.038-5.614 6.038-3.486 0-5.693-2.903-5.693-6.115v-.077c0-3.174 2.17-6.04 5.615-6.04 3.485 0 5.69 2.904 5.69 6.118v.078zM156.33 33.16c-8.364 0-14.83 6.27-14.83 14.13v.078c0 7.857 6.388 14.05 14.752 14.05 8.363.002 14.83-6.27 14.83-14.127v-.077c0-7.86-6.39-14.053-14.753-14.053z" fill="#fff"/><path d="M93.49 80.968c0 7.17-5.813 12.983-12.985 12.983H13.132C5.96 93.95.146 88.14.146 80.97V13.61C.146 6.443 5.96.63 13.132.63h67.373C87.677.63 93.49 6.44 93.49 13.61V80.97z" fill="#ff7346"/><path d="M77.38 15.468H58.704c-.692 0-1.253.562-1.253 1.254V33.41h2.085c.298.02.536.262.536.566 0 .128-.05.24-.122.337l-11.958 12.18c-.193.23-.288.514-.29.797.002.284.097.567.29.798l11.96 12.18c.07.095.12.207.12.337 0 .304-.237.546-.535.565h-2.085v16.69c0 .69.56 1.252 1.253 1.252H77.38c.692 0 1.253-.56 1.253-1.253V16.72c0-.692-.56-1.254-1.254-1.254zM33.794 34.382c-.103-.105-.167-.248-.167-.406 0-.304.237-.546.535-.566h2.063V16.722c0-.692-.563-1.254-1.255-1.254H16.257c-.693 0-1.254.562-1.254 1.254V77.86c0 .69.56 1.252 1.254 1.252h18.716c.693 0 1.255-.56 1.255-1.253V61.17h-2.063c-.298-.02-.536-.26-.536-.565 0-.158.063-.303.167-.405L45.69 48.08c.19-.23.283-.51.283-.792 0-.28-.093-.56-.283-.792L33.796 34.382z" fill="#fff"/></svg>