<?xml version="1.0" standalone="no"?>
<!-- Generator: Adobe Fireworks 10, Export SVG Extension by Aaron Beall (http://fireworks.abeall.com) . Version: 0.6.1  -->
<!DOCTYPE svg PUBLIC "-//W3C//DTD SVG 1.1//EN" "http://www.w3.org/Graphics/SVG/1.1/DTD/svg11.dtd">
<svg id="Untitled-Page%201" viewBox="0 0 424 94" style="background-color:#ffffff00" version="1.1"
	xmlns="http://www.w3.org/2000/svg" xmlns:xlink="http://www.w3.org/1999/xlink" xml:space="preserve"
	x="0px" y="0px" width="424px" height="94px"
>
	<g>
		<path d="M 273.5034 53.0971 L 261.451 53.0971 L 261.451 34.4277 C 261.451 34.0487 261.1442 33.7415 260.7652 33.7415 L 253.0777 33.7415 C 252.6987 33.7415 252.3909 34.0487 252.3909 34.4277 L 252.3909 60.1518 C 252.3909 60.5307 252.6987 60.8394 253.0777 60.8394 L 273.5034 60.8394 C 273.8824 60.8394 274.1912 60.5307 274.1912 60.1518 L 274.1912 53.7827 C 274.1912 53.4038 273.8824 53.0971 273.5034 53.0971 L 273.5034 53.0971 ZM 360.7288 43.9997 C 360.7288 45.664 359.4119 46.6314 357.243 46.6314 L 353.3324 46.6314 L 353.3324 41.3285 L 357.2822 41.3285 C 359.3727 41.3285 360.7288 42.1806 360.7288 43.9221 L 360.7288 43.9997 ZM 364.8416 52.2621 C 364.615 51.93 364.7225 51.4758 365.0722 51.2785 C 367.9727 49.6523 369.7498 47.0162 369.7498 43.3419 L 369.7498 43.2638 C 369.7498 40.4763 368.8988 38.4644 367.2722 36.8382 C 365.3741 34.9419 362.3163 33.7415 357.5146 33.7415 L 344.9581 33.7415 C 344.5791 33.7415 344.2723 34.0487 344.2723 34.4277 L 344.2723 60.1518 C 344.2723 60.5307 344.5791 60.8394 344.9581 60.8394 L 352.6456 60.8394 C 353.0247 60.8394 353.3324 60.5307 353.3324 60.1518 L 353.3324 53.0971 L 355.2687 53.0971 L 360.1758 60.5297 C 360.3038 60.7231 360.5187 60.8394 360.7493 60.8394 L 369.4156 60.8394 C 369.9676 60.8394 370.2939 60.2201 369.9822 59.765 L 364.8416 52.2621 ZM 332.85 47.3679 C 332.85 50.5421 330.6823 53.4058 327.2356 53.4058 C 323.7519 53.4058 321.544 50.503 321.544 47.2907 L 321.544 47.2126 C 321.544 44.0388 323.7128 41.1737 327.1584 41.1737 C 330.6432 41.1737 332.85 44.0769 332.85 47.2907 L 332.85 47.3679 ZM 327.2356 33.1604 C 318.8731 33.1604 312.4058 39.4313 312.4058 47.2907 L 312.4058 47.3679 C 312.4058 55.2253 318.7949 61.4195 327.1584 61.4195 C 335.522 61.4195 341.9883 55.1482 341.9883 47.2907 L 341.9883 47.2126 C 341.9883 39.3541 335.5991 33.1604 327.2356 33.1604 L 327.2356 33.1604 ZM 249.2657 53.4058 L 235.5486 53.4058 L 235.5486 52.7231 C 235.5486 52.7231 235.5486 52.7211 235.5486 52.7201 L 235.5486 51.1506 C 235.5486 51.1506 235.5486 51.1486 235.5486 51.1476 L 235.5486 50.464 L 248.1041 50.464 C 248.4832 50.464 248.791 50.1563 248.791 49.7773 L 248.791 44.6092 C 248.791 44.2297 248.4832 43.9221 248.1041 43.9221 L 235.5486 43.9221 L 235.5486 43.2389 L 235.5486 43.236 L 235.5486 41.8608 L 235.5486 41.8569 L 235.5486 41.1737 L 249.0723 41.1737 C 249.4514 41.1737 249.7591 40.8665 249.7591 40.4875 L 249.7591 34.4277 C 249.7591 34.0487 249.4514 33.7415 249.0723 33.7415 L 227.3287 33.7415 C 226.9496 33.7415 226.6429 34.0487 226.6429 34.4277 L 226.6429 60.1518 C 226.6429 60.5307 226.9496 60.8394 227.3287 60.8394 L 249.2657 60.8394 C 249.6458 60.8394 249.9525 60.5307 249.9525 60.1518 L 249.9525 54.0934 C 249.9525 53.7134 249.6458 53.4058 249.2657 53.4058 L 249.2657 53.4058 ZM 393.8428 53.0971 L 381.7914 53.0971 L 381.7914 34.4277 C 381.7914 34.0487 381.4836 33.7415 381.1046 33.7415 L 373.4171 33.7415 C 373.0381 33.7415 372.7313 34.0487 372.7313 34.4277 L 372.7313 60.1518 C 372.7313 60.5307 373.0381 60.8394 373.4171 60.8394 L 393.8428 60.8394 C 394.2228 60.8394 394.5306 60.5307 394.5306 60.1518 L 394.5306 53.7827 C 394.5306 53.4038 394.2228 53.0971 393.8428 53.0971 L 393.8428 53.0971 ZM 312.6627 33.7415 L 304.7896 33.7415 C 304.4839 33.7415 304.2162 33.9418 304.1302 34.2338 L 301.0597 44.6541 C 300.8702 45.2982 299.9626 45.3139 299.7496 44.6771 L 296.2239 34.1327 C 296.1301 33.8524 295.8683 33.6634 295.5732 33.6634 L 288.7396 33.6634 C 288.4446 33.6634 288.1818 33.8524 288.089 34.1327 L 284.5623 44.6771 C 284.3493 45.3139 283.4427 45.2982 283.2532 44.6541 L 280.1817 34.2338 C 280.0958 33.9418 279.8281 33.7415 279.5233 33.7415 L 271.4958 33.7415 C 271.0288 33.7415 270.6986 34.1967 270.8422 34.6396 L 279.2624 60.558 C 279.3542 60.8413 279.619 61.0317 279.916 61.0317 L 286.8307 61.0317 C 287.1218 61.0317 287.3807 60.8491 287.4774 60.5746 L 291.4311 49.3925 C 291.647 48.7811 292.5096 48.7811 292.7255 49.3925 L 296.6791 60.5746 C 296.7769 60.8491 297.0367 61.0317 297.3268 61.0317 L 304.2416 61.0317 C 304.5396 61.0317 304.8024 60.8413 304.8942 60.558 L 313.3153 34.6396 C 313.4599 34.1967 313.1287 33.7415 312.6627 33.7415 L 312.6627 33.7415 ZM 138.3356 33.7415 L 130.6486 33.7415 C 130.2696 33.7415 129.9614 34.0487 129.9614 34.4277 L 129.9614 43.3029 L 121.675 43.3029 L 121.675 34.4277 C 121.675 34.0487 121.3683 33.7415 120.9887 33.7415 L 113.3022 33.7415 C 112.9217 33.7415 112.615 34.0487 112.615 34.4277 L 112.615 60.1518 C 112.615 60.5307 112.9217 60.8394 113.3022 60.8394 L 120.9887 60.8394 C 121.3683 60.8394 121.675 60.5307 121.675 60.1518 L 121.675 51.1232 L 129.9614 51.1232 L 129.9614 60.1518 C 129.9614 60.5307 130.2696 60.8394 130.6486 60.8394 L 138.3356 60.8394 C 138.7147 60.8394 139.0229 60.5307 139.0229 60.1518 L 139.0229 34.4277 C 139.0229 34.0487 138.7147 33.7415 138.3356 33.7415 L 138.3356 33.7415 ZM 414.0839 47.3288 C 414.0839 51.2385 411.412 52.9418 407.2678 52.9418 L 405.7585 52.9418 L 405.7585 41.6376 L 407.2678 41.6376 C 411.412 41.6376 414.0839 43.3419 414.0839 47.2516 L 414.0839 47.3288 ZM 407.0754 33.7415 L 397.3842 33.7415 C 397.0052 33.7415 396.6984 34.0487 396.6984 34.4277 L 396.6984 60.1518 C 396.6984 60.5307 397.0052 60.8394 397.3842 60.8394 L 406.7647 60.8394 C 417.723 60.8394 423.2211 55.1482 423.2211 47.1354 L 423.2211 47.0573 C 423.2211 39.0455 417.8392 33.7415 407.0754 33.7415 L 407.0754 33.7415 ZM 185.7945 43.3419 C 182.9291 42.7999 182.193 42.3345 182.193 41.5995 L 182.193 41.5224 C 182.193 40.8636 182.8134 40.3997 184.1678 40.3997 C 186.5135 40.3997 189.3285 41.1053 191.7694 42.7047 C 192.0727 42.9029 192.4801 42.8209 192.6921 42.5269 L 196.3204 37.4979 C 196.5456 37.1868 196.4675 36.7581 196.1563 36.5329 C 193.12 34.3369 189.3998 33.2376 184.478 33.2376 C 177.005 33.2376 172.9776 37.2249 172.9776 42.3735 L 172.9776 42.4517 C 172.9776 48.1805 178.3214 49.9229 184.4009 51.1613 C 187.3048 51.7415 188.1562 52.1683 188.1562 52.9418 L 188.1562 53.019 C 188.1562 53.7554 187.4592 54.1803 185.8336 54.1803 C 182.8353 54.1803 179.6652 53.352 176.8438 51.3703 C 176.5561 51.1682 176.16 51.2287 175.9338 51.4983 L 171.9504 56.246 C 171.7003 56.5439 171.7482 56.9873 172.0519 57.2295 C 175.4654 59.9486 180.1923 61.3423 185.4071 61.3423 C 192.6872 61.3423 197.3716 57.8575 197.3716 52.1683 L 197.3716 52.0901 C 197.3716 46.6314 192.7258 44.619 185.7945 43.3419 L 185.7945 43.3419 ZM 223.1309 33.7415 L 199.4896 33.7415 C 199.1105 33.7415 198.8033 34.0487 198.8033 34.4277 L 198.8033 40.7195 C 198.8033 41.0985 199.1105 41.4066 199.4896 41.4066 L 206.7805 41.4066 L 206.7805 60.1518 C 206.7805 60.5307 207.0876 60.8394 207.4667 60.8394 L 215.1532 60.8394 C 215.5323 60.8394 215.841 60.5307 215.841 60.1518 L 215.841 41.4066 L 223.1309 41.4066 C 223.5099 41.4066 223.8167 41.0985 223.8167 40.7195 L 223.8167 34.4277 C 223.8167 34.0487 223.5099 33.7415 223.1309 33.7415 L 223.1309 33.7415 ZM 161.9432 47.3679 C 161.9432 50.5421 159.7753 53.4058 156.3292 53.4058 C 152.8441 53.4058 150.6371 50.503 150.6371 47.2907 L 150.6371 47.2126 C 150.6371 44.0388 152.8059 41.1737 156.2521 41.1737 C 159.7368 41.1737 161.9432 44.0769 161.9432 47.2907 L 161.9432 47.3679 ZM 156.3292 33.1604 C 147.9662 33.1604 141.4994 39.4313 141.4994 47.2907 L 141.4994 47.3679 C 141.4994 55.2253 147.8881 61.4195 156.2521 61.4195 C 164.6155 61.4195 171.0818 55.1482 171.0818 47.2907 L 171.0818 47.2126 C 171.0818 39.3541 164.6923 33.1604 156.3292 33.1604 L 156.3292 33.1604 Z" fill="#ffffff"/>
		<path d="M 93.491 80.968 C 93.491 88.1378 87.6768 93.9511 80.5052 93.9511 L 13.1316 93.9511 C 5.9599 93.9511 0.1457 88.1378 0.1457 80.968 L 0.1457 13.6115 C 0.1457 6.4416 5.9599 0.6288 13.1316 0.6288 L 80.5052 0.6288 C 87.6768 0.6288 93.491 6.4416 93.491 13.6115 L 93.491 80.968 Z" fill="#ff7346"/>
		<path d="M 77.3785 15.4677 L 58.7054 15.4677 C 58.0133 15.4677 57.452 16.0298 57.452 16.7217 L 57.452 33.41 L 59.5368 33.41 C 59.8347 33.43 60.0731 33.6717 60.0731 33.976 C 60.0731 34.1039 60.0228 34.2172 59.951 34.3129 L 47.9924 46.4918 C 47.7994 46.7237 47.7042 47.0065 47.7032 47.2897 C 47.7042 47.5739 47.7994 47.8572 47.9924 48.0877 L 59.951 60.267 C 60.0228 60.3627 60.0731 60.475 60.0731 60.6049 C 60.0731 60.9087 59.8347 61.1509 59.5368 61.1704 L 57.452 61.1704 L 57.452 77.8592 C 57.452 78.5507 58.0133 79.1122 58.7054 79.1122 L 77.3785 79.1122 C 78.0716 79.1122 78.6329 78.5507 78.6329 77.8592 L 78.6329 16.7217 C 78.6329 16.0298 78.0716 15.4677 77.3785 15.4677 L 77.3785 15.4677 ZM 33.7961 34.3823 L 33.7971 34.3808 C 33.693 34.2773 33.629 34.1342 33.629 33.976 C 33.629 33.6717 33.8669 33.43 34.1649 33.41 L 36.2277 33.41 L 36.2277 16.7217 C 36.2277 16.0298 35.6655 15.4677 34.9733 15.4677 L 16.2572 15.4677 C 15.5641 15.4677 15.0029 16.0298 15.0029 16.7217 L 15.0029 77.8592 C 15.0029 78.5507 15.5641 79.1122 16.2572 79.1122 L 34.9733 79.1122 C 35.6655 79.1122 36.2277 78.5507 36.2277 77.8592 L 36.2277 61.1704 L 34.1649 61.1704 C 33.8669 61.1509 33.629 60.9087 33.629 60.6049 C 33.629 60.4467 33.693 60.3022 33.7971 60.1996 L 33.7961 60.1986 L 45.6922 48.0818 C 45.8817 47.8523 45.9755 47.571 45.9755 47.2897 C 45.9755 47.0099 45.8817 46.7286 45.6922 46.4976 L 33.7961 34.3823 Z" fill="#ffffff"/>
	</g>
</svg>